<svg width="1200" height="600" viewBox="0 0 1200 600" xmlns="http://www.w3.org/2000/svg" role="img" aria-label="Laptop with abstract architecture">
  <defs>
    <linearGradient id="g1" x1="0" y1="0" x2="1" y2="1">
      <stop stop-color="#2563EB" offset="0"/>
      <stop stop-color="#14B8A6" offset="1"/>
    </linearGradient>
    <linearGradient id="g2" x1="0" y1="0" x2="0" y2="1">
      <stop stop-color="#0EA5E9" offset="0"/>
      <stop stop-color="#2563EB" offset="1"/>
    </linearGradient>
    <filter id="shadow" x="-50%" y="-50%" width="200%" height="200%">
      <feDropShadow dx="0" dy="14" stdDeviation="20" flood-color="#000" flood-opacity="0.2"/>
    </filter>
  </defs>
  <rect width="1200" height="600" fill="#0B0C10"/>
  <g transform="translate(100,100)" filter="url(#shadow)">
    <rect x="0" y="0" rx="20" ry="20" width="600" height="380" fill="#111827" stroke="#1F2937" />
    <rect x="60" y="40" rx="6" ry="6" width="480" height="12" fill="#374151"/>
    <rect x="60" y="70" rx="8" ry="8" width="180" height="110" fill="url(#g1)"/>
    <rect x="250" y="70" rx="8" ry="8" width="180" height="70" fill="#1F2937" stroke="#374151"/>
    <rect x="250" y="150" rx="8" ry="8" width="120" height="30" fill="#0EA5E9"/>
    <rect x="380" y="150" rx="8" ry="8" width="50" height="30" fill="#111827" stroke="#374151"/>
    <rect x="60" y="200" rx="8" ry="8" width="180" height="110" fill="#1F2937" stroke="#374151"/>
    <rect x="250" y="200" rx="8" ry="8" width="180" height="110" fill="url(#g2)"/>
    <rect x="0" y="380" width="600" height="24" rx="12" fill="#0F172A"/>
  </g>
  <g transform="translate(760,140)" filter="url(#shadow)">
    <rect x="0" y="0" rx="16" ry="16" width="320" height="280" fill="#0F172A" stroke="#1E293B"/>
    <rect x="24" y="28" rx="6" ry="6" width="180" height="14" fill="#1D4ED8"/>
    <rect x="24" y="56" rx="6" ry="6" width="272" height="14" fill="#334155"/>
    <rect x="24" y="84" rx="6" ry="6" width="272" height="14" fill="#334155"/>
    <rect x="24" y="112" rx="6" ry="6" width="210" height="14" fill="#334155"/>
    <rect x="24" y="160" rx="10" ry="10" width="120" height="40" fill="#14B8A6"/>
  </g>
  <circle cx="1060" cy="80" r="40" fill="#1D4ED8" opacity="0.25"/>
  <circle cx="960" cy="520" r="26" fill="#14B8A6" opacity="0.25"/>
  <circle cx="160" cy="520" r="20" fill="#2563EB" opacity="0.25"/>
  </svg>

